<?xml version="1.0" standalone="no"?>
<!DOCTYPE svg PUBLIC "-//W3C//DTD SVG 20010904//EN"
 "http://www.w3.org/TR/2001/REC-SVG-20010904/DTD/svg10.dtd">
<svg version="1.0" xmlns="http://www.w3.org/2000/svg"
 width="96.000000pt" height="96.000000pt" viewBox="0 0 96.000000 96.000000"
 preserveAspectRatio="xMidYMid meet">
<metadata>
Created by potrace 1.11, written by Peter Selinger 2001-2013
</metadata>
<g transform="translate(0.000000,96.000000) scale(0.100000,-0.100000)"
fill="#000000" stroke="none">
<path d="M386 869 c-107 -26 -220 -118 -265 -214 -126 -268 63 -564 365 -574
58 -2 66 0 89 25 23 24 25 35 25 114 0 79 2 90 25 114 23 24 29 26 115 26 86
0 92 2 115 26 18 20 25 38 25 69 0 229 -164 411 -378 421 -42 2 -94 -1 -116
-7z m225 -101 c103 -48 174 -151 186 -267 l5 -59 -89 -3 c-80 -4 -93 -7 -127
-33 -50 -38 -66 -79 -66 -172 l0 -76 -59 5 c-283 25 -400 359 -194 553 89 85
228 105 344 52z"/>
<path d="M456 738 c-21 -30 -20 -54 4 -78 27 -27 65 -26 84 2 21 30 20 54 -4
78 -27 27 -65 26 -84 -2z"/>
<path d="M296 698 c-9 -12 -16 -29 -16 -38 0 -27 30 -60 56 -60 29 0 64 32 64
60 0 28 -35 60 -64 60 -14 0 -32 -10 -40 -22z"/>
<path d="M620 660 c-11 -11 -20 -29 -20 -40 0 -11 9 -29 20 -40 11 -11 29 -20
40 -20 11 0 29 9 40 20 11 11 20 29 20 40 0 11 -9 29 -20 40 -11 11 -29 20
-40 20 -11 0 -29 -9 -40 -20z"/>
<path d="M216 538 c-22 -32 -20 -64 6 -82 30 -21 54 -20 78 4 25 25 25 55 0
80 -27 27 -65 26 -84 -2z"/>
<path d="M345 374 c-23 -22 -27 -31 -22 -62 12 -69 80 -94 131 -47 34 31 34
73 1 109 -31 34 -73 34 -110 0z"/>
</g>
</svg>
